# xmcd
#
# Track frame offsets:
#	150
#	14807
#	26723
#	46089
#	55000
#	69298
#	80833
#	100442
#	116002
#	131955
#	143217
#	155564
#	168715
#	182766
#
# Disc length: 2573 seconds
#
# Revision: 0
# Processed by: cddbd v1.5.2PL0 Copyright (c) Steve Scherf et al.
# Submitted via: EasyCDDAExtractor 16.0.6.1
#
DISCID=cc0a0b0e
DTITLE=Άνευ ερμηνευτού - Τα οργανικά της Σμύρνης-βιολί Γ. Κόρος
DYEAR=1998
DGENRE=Ποικίλη
TTITLE0=Τι σε μέλλει εσένα [ορχ., παραδ. Σμύρνης, διασκ. Στέλ. Φωτιάδης]
TTITLE1=Το πασούμι [ορχ., Γ. Πετροπουλέα-Μεν. Μιχαηλίδη]
TTITLE2=Ο μποχόρης [ορχ., παραδ., διασκ. Στέλ. Φωτιάδη]
TTITLE3=Από ξένο τόπο [ορχ., παραδ. Σμύρνης, διασκ. Στέλ. Φωτιάδη]
TTITLE4=Αγιοθοδωρίτισσα [ορχ., Βαγγ. Παπάζογλου]
TTITLE5=Σκερτσοπεταχτό [ορχ., παραδ. Σμύρνης, διασκ. Στέλ. Φωτιάδη]
TTITLE6=Η μπολσεβίκα (Κέρνα μας) [ορχ., Παν. Τούντα]
TTITLE7=Γκελ γκελ αμάν [ορχ., παραδ. Σμύρνης, διασκ. Στέλ. Φωτιάδη]
TTITLE8=Η Έλλη [ορχ., παραδ. Σμύρνης, διασκ. Στέλ. Φωτιάδη]
TTITLE9=Βάλε με στην αγκαλιά σου [ορχ., Βαγγ. Παπάζογλου]
TTITLE10=Ο φερεντζές [ορχ., Ρόζας Εσκενάζυ]
TTITLE11=Αρμενίτσα (Δυό σεβντάδες) [ορχ., Παν. Τούντα]
TTITLE12=Μέσ' στης Αθήνας τις ομορφιές [ορχ., Κώστα Σκαρβέλη]
TTITLE13=Η Μαρίτσα η Σμυρνιά [ορχ., Παν. Τούντα]
EXTD=
EXTT0=
EXTT1=
EXTT2=
EXTT3=
EXTT4=
EXTT5=
EXTT6=
EXTT7=
EXTT8=
EXTT9=
EXTT10=
EXTT11=
EXTT12=
EXTT13=
PLAYORDER=
